<svg width="64" height="20" viewBox="0 0 64 20" fill="none" xmlns="http://www.w3.org/2000/svg">
<path d="M5.81526 12.8845C5.90662 14.4682 5.90662 16.4175 5.81526 18.7321C3.927 17.8793 2.46513 16.6611 1.46009 15.1383C0.333234 13.4023 -0.1236 11.3618 0.0286785 9.01669C0.150501 7.18935 0.759614 5.54476 1.91693 4.08289C2.92197 2.80375 4.17065 1.76823 5.72389 1.00684L5.75434 1.03732C5.7848 1.03732 5.7848 1.06781 5.81526 1.06781C5.90662 2.98651 5.90662 4.90522 5.81526 6.85438C4.99295 7.00666 4.41429 7.06751 4.01837 6.94569C3.927 6.76296 3.86609 6.428 3.927 5.94071C3.95746 5.42297 3.95746 5.08794 3.86609 4.93566C3.56154 5.02703 3.22652 5.42297 2.8306 6.09299C1.97784 7.61578 1.67328 9.4126 2.0083 11.514C2.22149 12.9455 2.8306 14.1028 3.80518 14.9555C3.927 14.8033 3.95746 14.4987 3.927 14.0419C3.89655 13.4328 3.89655 13.0673 3.89655 12.915C4.56657 12.7932 5.17569 12.7932 5.81526 12.8845Z" fill="white"/>
<path d="M12.6996 8.8664C12.791 12.2165 12.791 15.5971 12.6996 18.9473C11.9078 19.2823 10.9637 19.4345 9.83679 19.4345C8.70993 19.4345 7.76581 19.2823 7.00442 18.9473C6.88259 17.6072 6.85214 15.5667 6.94351 12.7647C7.27852 12.6125 7.91809 12.582 8.77085 12.7038C8.8013 12.7952 8.8013 13.6784 8.77085 15.3535C8.74039 16.6326 8.77085 17.3331 8.83176 17.4549C8.95358 17.6376 9.22768 17.7595 9.68452 17.729C10.05 17.729 10.385 17.6681 10.6896 17.5463C10.8418 15.4753 10.8723 13.2216 10.7809 10.7851C10.4155 10.6633 9.80634 10.6633 8.92312 10.6633C7.979 10.6938 7.33943 10.6633 7.00442 10.6024C6.91305 5.39444 6.88259 2.01386 6.94351 0.399708C7.7049 0.125607 8.64903 -0.0266115 9.80634 0.00384417C10.9027 0.00384417 11.8469 0.156063 12.6692 0.399708C12.7605 2.50115 12.7605 4.60265 12.6692 6.70409C12.0601 6.82591 11.4814 6.82591 10.8723 6.70409C10.8114 6.12543 10.8114 5.33353 10.8114 4.35895C10.8114 3.0189 10.8418 2.22708 10.8418 1.95298C10.6591 1.8007 10.3545 1.70932 9.92816 1.70932C9.50178 1.70932 9.16677 1.73977 8.89267 1.8616C8.83176 2.59253 8.83176 3.71939 8.83176 5.21172C8.83176 7.13043 8.86221 8.25732 8.86221 8.59233C9.0754 8.6837 9.92816 8.74459 11.4205 8.8055L12.6996 8.8664Z" fill="white"/>
<path d="M15.99 17.456C15.1068 18.1261 14.4063 18.5524 13.8276 18.6743V1.28411C13.8276 1.2232 13.8885 1.16229 13.919 1.13184C16.5077 2.2587 18.2133 4.1774 19.0356 6.91841C18.2133 7.00978 17.6346 7.04022 17.2387 6.97931C17.0864 6.85749 16.9037 6.49202 16.6296 5.91336C16.4164 5.45653 16.1727 5.152 15.8682 5.03018C15.6854 7.40572 15.655 10.7253 15.7463 14.9587C16.1118 14.8064 16.5077 14.2278 16.995 13.2532C17.3909 12.4004 17.6346 11.6695 17.6346 11.0603C17.6346 10.9385 17.5128 10.8776 17.2691 10.8776C16.9646 10.8776 16.8123 10.8776 16.7818 10.8472C16.6905 10.2381 16.6905 9.65942 16.7818 9.05031C17.6955 8.95894 18.6092 8.95894 19.5228 9.05031C19.7665 12.5527 18.5787 15.3546 15.99 17.456Z" fill="white"/>
<path d="M24.5668 0.138184C24.819 0.138184 25.0397 0.138214 25.2289 0.169744C25.4181 0.169744 25.5757 0.201258 25.7333 0.232787C25.891 0.264317 26.0486 0.295862 26.2063 0.327391L26.1117 1.33632C25.9541 1.33632 25.7964 1.30476 25.6388 1.30476C25.4811 1.30476 25.355 1.30476 25.1658 1.30476C25.0082 1.30476 24.819 1.30476 24.5668 1.30476C24.3776 1.30476 24.2199 1.33633 24.0938 1.43092C23.9677 1.52551 23.9046 1.6516 23.8416 1.87231C23.81 2.09301 23.7785 2.37679 23.7785 2.75515C23.7785 3.1335 23.81 3.44881 23.8416 3.63799C23.8731 3.85869 23.9677 3.98478 24.0938 4.07937C24.2199 4.17396 24.3776 4.20553 24.5668 4.20553C24.9136 4.20553 25.2289 4.20553 25.4811 4.20553C25.7333 4.20553 25.954 4.17394 26.2063 4.14241L26.3009 5.15142C26.0486 5.24601 25.7964 5.30902 25.5442 5.34055C25.2919 5.37208 24.9766 5.40359 24.5668 5.40359C24.0308 5.40359 23.5893 5.30907 23.2425 5.15142C22.9272 4.99377 22.675 4.70997 22.5173 4.33162C22.3597 3.95327 22.2966 3.4173 22.2966 2.78671C22.2966 2.12459 22.3597 1.62007 22.5173 1.24172C22.675 0.863362 22.8957 0.579643 23.2425 0.421995C23.5893 0.232818 24.0308 0.138184 24.5668 0.138184Z" fill="white"/>
<path d="M27.9094 1.65294L28.0671 2.40962L28.1932 2.50422V5.34188H26.8374V1.65294H27.9094ZM29.7066 1.55834L29.5805 2.78804H29.2336C29.076 2.78804 28.9183 2.78799 28.7292 2.81952C28.54 2.85105 28.3193 2.91411 28.0671 2.97717L27.9725 2.25197C28.2247 2.03127 28.4769 1.8421 28.7292 1.71599C28.9814 1.58987 29.2336 1.52686 29.4859 1.52686H29.7066V1.55834Z" fill="white"/>
<path d="M31.9466 1.55786C32.6088 1.55786 33.0817 1.65245 33.3655 1.87316C33.6492 2.09386 33.7753 2.40919 33.7753 2.8506C33.7753 3.19743 33.6808 3.44963 33.4916 3.60728C33.3024 3.76493 32.9556 3.85953 32.4826 3.85953H30.4647V3.19738H32.1043C32.2619 3.19738 32.388 3.16587 32.4196 3.13434C32.4511 3.07128 32.4826 3.0082 32.4826 2.88208C32.4826 2.72444 32.4511 2.62988 32.3565 2.59835C32.2935 2.53529 32.1673 2.53531 31.9782 2.53531C31.8205 2.53531 31.6629 2.53529 31.5683 2.59835C31.4737 2.62988 31.4106 2.72448 31.3791 2.8506C31.3476 2.97672 31.316 3.19739 31.316 3.44963C31.316 3.70187 31.3476 3.92257 31.3791 4.08022C31.4106 4.23787 31.5052 4.33246 31.5998 4.39551C31.7259 4.45857 31.8836 4.49012 32.0727 4.49012C32.2304 4.49012 32.4511 4.49009 32.7033 4.45856C32.9556 4.45856 33.2393 4.42704 33.5231 4.39551L33.6492 5.21531C33.4916 5.3099 33.3024 5.34138 33.1132 5.40444C32.924 5.43597 32.7349 5.46752 32.5142 5.49905C32.325 5.53058 32.1043 5.53061 31.9151 5.53061C31.4106 5.53061 31.0323 5.46756 30.717 5.30992C30.4332 5.1838 30.2125 4.96309 30.0864 4.67933C29.9603 4.39556 29.8972 4.04869 29.8972 3.60728C29.8972 3.13434 29.9603 2.72447 30.0864 2.4407C30.2125 2.15694 30.4332 1.93623 30.717 1.81011C31.0638 1.62094 31.4422 1.55786 31.9466 1.55786Z" fill="white"/>
<path d="M37.4013 3.10285V3.79649H35.8248C35.6987 3.79649 35.6357 3.82803 35.5726 3.89109C35.5095 3.95415 35.5095 4.01719 35.5095 4.11178V4.23787C35.5095 4.33246 35.5411 4.3955 35.6041 4.45856C35.6672 4.52162 35.7618 4.52168 35.8879 4.52168C36.014 4.52168 36.1401 4.49013 36.2663 4.42708C36.3924 4.36402 36.55 4.30097 36.6761 4.20638C36.8023 4.1118 36.9284 4.01721 37.023 3.89109V4.36403C36.9914 4.45862 36.9284 4.55318 36.8338 4.64777C36.7392 4.77388 36.6446 4.90003 36.5185 4.99462C36.3924 5.12074 36.2347 5.21533 36.0455 5.30992C35.8564 5.4045 35.6357 5.436 35.415 5.436C35.1942 5.436 34.9735 5.4045 34.7844 5.30992C34.5952 5.21533 34.4375 5.12071 34.343 4.96306C34.2168 4.80541 34.1853 4.61622 34.1853 4.39551V4.01718C34.1853 3.73341 34.2799 3.48119 34.5006 3.32354C34.7213 3.1659 35.0051 3.07129 35.3519 3.07129H37.4013V3.10285ZM36.3924 1.55786C36.7392 1.55786 36.9914 1.58944 37.2437 1.68403C37.4644 1.77861 37.6535 1.93623 37.7797 2.12541C37.9058 2.34611 37.9688 2.62986 37.9688 2.97669V5.3414H36.8968L36.7077 4.55316L36.6131 4.42708V3.00825C36.6131 2.8506 36.5815 2.75601 36.487 2.69295C36.4239 2.62989 36.2978 2.59835 36.1086 2.59835C35.9194 2.59835 35.6672 2.59835 35.3834 2.59835C35.0997 2.59835 34.8159 2.62991 34.5006 2.62991L34.3745 1.74707C34.5637 1.71554 34.7844 1.68399 35.0051 1.65247C35.2258 1.62094 35.5095 1.58942 35.7303 1.58942C36.014 1.55789 36.2347 1.55786 36.3924 1.55786Z" fill="white"/>
<path d="M41.3075 1.65152V2.5028H38.3752V1.71456L39.1004 1.68308H41.3075V1.65152ZM40.3616 0.674072V4.07927C40.3616 4.17386 40.3931 4.26846 40.4562 4.33152C40.5193 4.39458 40.6138 4.39457 40.74 4.39457H41.1814L41.339 5.27741C41.2444 5.30894 41.1183 5.34048 40.9922 5.37201C40.8661 5.40354 40.7084 5.40353 40.5508 5.43506C40.3931 5.43506 40.2985 5.46662 40.1724 5.46662C39.8256 5.46662 39.5418 5.37198 39.3527 5.1828C39.1635 4.99363 39.0374 4.74142 39.0374 4.42613V0.674072H40.3616Z" fill="white"/>
<path d="M42.7918 0.0129395C43.0441 0.0129395 43.1702 0.139073 43.1702 0.422838V0.801177C43.1702 1.05341 43.0441 1.21108 42.7918 1.21108H42.2243C41.9721 1.21108 41.8459 1.08494 41.8459 0.801177V0.422838C41.8459 0.170602 41.9721 0.0129395 42.2243 0.0129395H42.7918ZM43.1702 1.65246V5.34139H41.8459V1.65246H43.1702Z" fill="white"/>
<path d="M47.9272 1.6521L46.7921 5.02574C46.7606 5.12033 46.6975 5.2149 46.6345 5.24643C46.5714 5.30949 46.4768 5.34103 46.3507 5.34103H45.1841C45.0895 5.34103 44.9949 5.30949 44.9319 5.24643C44.8688 5.18337 44.8057 5.12033 44.7742 5.02574L43.6392 1.6521H45.058L45.594 3.79612C45.6255 3.89071 45.6571 4.01678 45.6571 4.1429C45.6886 4.26902 45.6886 4.36364 45.7201 4.48975H45.8147C45.8462 4.36364 45.8462 4.26902 45.8778 4.1429C45.9093 4.01678 45.9093 3.92224 45.9408 3.79612L46.4768 1.6521H47.9272Z" fill="white"/>
<path d="M50.0751 1.55786C50.7372 1.55786 51.2101 1.65245 51.4939 1.87316C51.7776 2.09386 51.9038 2.40919 51.9038 2.8506C51.9038 3.19743 51.8092 3.44963 51.62 3.60728C51.4308 3.76493 51.084 3.85953 50.611 3.85953H48.5932V3.19738H50.2327C50.3903 3.19738 50.5165 3.16587 50.548 3.13434C50.5795 3.07128 50.611 3.0082 50.611 2.88208C50.611 2.72444 50.5795 2.62988 50.4849 2.59835C50.4219 2.53529 50.2958 2.53531 50.1066 2.53531C49.9489 2.53531 49.7913 2.53529 49.6967 2.59835C49.6021 2.62988 49.539 2.72448 49.5075 2.8506C49.476 2.97672 49.4445 3.19739 49.4445 3.44963C49.4445 3.70187 49.476 3.92257 49.5075 4.08022C49.539 4.23787 49.6336 4.33246 49.7282 4.39551C49.8543 4.45857 50.012 4.49012 50.2012 4.49012C50.3588 4.49012 50.5795 4.49009 50.8318 4.45856C51.084 4.45856 51.3678 4.42704 51.6515 4.39551L51.7776 5.21531C51.62 5.3099 51.4308 5.34138 51.2416 5.40444C51.0525 5.43597 50.8633 5.46752 50.6426 5.49905C50.4534 5.53058 50.2327 5.53061 50.0435 5.53061C49.539 5.53061 49.1607 5.46756 48.8454 5.30992C48.5616 5.1838 48.3409 4.96309 48.2148 4.67933C48.0887 4.39556 48.0256 4.04869 48.0256 3.60728C48.0256 3.13434 48.0887 2.72447 48.2148 2.4407C48.3409 2.15694 48.5616 1.93623 48.8454 1.81011C49.2238 1.62094 49.6021 1.55786 50.0751 1.55786Z" fill="white"/>
<path d="M24.3157 7.54932C24.5679 7.54932 24.8517 7.58083 25.1985 7.61236C25.5138 7.64389 25.8291 7.70698 26.1129 7.80157L26.0183 8.71589C25.7976 8.71589 25.5453 8.71589 25.23 8.71589C24.9147 8.71589 24.5994 8.71589 24.3157 8.71589C24.1895 8.71589 24.095 8.71589 24.0319 8.71589C23.9688 8.71589 23.9058 8.74745 23.8427 8.74745C23.8112 8.77898 23.7481 8.81053 23.7481 8.84206C23.7166 8.87359 23.7166 8.9366 23.7166 9.03119C23.7166 9.15731 23.7481 9.25194 23.8112 9.315C23.8743 9.37806 24.0004 9.44107 24.1896 9.50413L25.1354 9.85098C25.5453 10.0086 25.8291 10.2293 26.0183 10.45C26.1759 10.7023 26.2705 10.986 26.2705 11.3959C26.2705 11.6797 26.239 11.9319 26.1759 12.1211C26.1129 12.3103 25.9867 12.4679 25.8291 12.594C25.6714 12.7202 25.4823 12.7832 25.1985 12.8463C24.9463 12.9093 24.631 12.9409 24.2526 12.9409C24.095 12.9409 23.8112 12.9409 23.4959 12.9093C23.1491 12.8778 22.7707 12.8148 22.3608 12.7202L22.4554 11.7428C22.7392 11.7428 23.023 11.7428 23.2437 11.7743C23.4644 11.7743 23.6851 11.7743 23.8427 11.7743C24.0004 11.7743 24.158 11.7743 24.2526 11.7743C24.4103 11.7743 24.5364 11.7743 24.631 11.7428C24.7256 11.7112 24.7886 11.6797 24.8201 11.6481C24.8517 11.6166 24.8832 11.5221 24.8832 11.459C24.8832 11.3644 24.8832 11.3013 24.8517 11.2698C24.8201 11.2068 24.7886 11.1753 24.7256 11.1437C24.6625 11.1122 24.5679 11.0807 24.4733 11.0491L23.4644 10.6392C23.0545 10.4816 22.7707 10.2609 22.6131 10.0402C22.4554 9.81949 22.3608 9.50414 22.3608 9.12579C22.3608 8.84203 22.3924 8.58977 22.487 8.4006C22.55 8.21142 22.6761 8.0538 22.8338 7.95922C22.9914 7.86463 23.1806 7.77005 23.4644 7.73852C23.6535 7.58088 23.9688 7.54932 24.3157 7.54932Z" fill="white"/>
<path d="M27.8446 7.42188C28.0968 7.42188 28.223 7.54801 28.223 7.83177V8.21011C28.223 8.46235 28.0968 8.62001 27.8446 8.62001H27.2771C27.0248 8.62001 26.8987 8.49388 26.8987 8.21011V7.83177C26.8987 7.57954 27.0248 7.42188 27.2771 7.42188H27.8446ZM28.223 9.09295V12.7819H26.8672V9.09295H28.223Z" fill="white"/>
<path d="M29.6118 11.112L30.2424 11.2381C30.1794 11.2697 30.1478 11.3012 30.1163 11.3958C30.0848 11.4588 30.0848 11.522 30.1478 11.6165C30.1794 11.6796 30.2739 11.7111 30.4001 11.7426L31.7558 11.8687C32.1657 11.9002 32.4495 12.0264 32.6387 12.184C32.7963 12.3732 32.8909 12.6255 32.8909 13.0038C32.8909 13.3506 32.8278 13.6028 32.6702 13.7605C32.5441 13.9497 32.3234 14.0443 32.0081 14.1073C31.7243 14.1704 31.3144 14.2019 30.81 14.2019C30.4001 14.2019 30.0532 14.1704 29.7695 14.1389C29.5172 14.1074 29.2965 14.0443 29.1389 13.9497C28.9812 13.8551 28.8867 13.7605 28.8236 13.6344C28.7605 13.5083 28.729 13.3191 28.729 13.1299C28.729 12.9722 28.7605 12.8462 28.8236 12.7201C28.8867 12.594 28.9812 12.4994 29.1389 12.4048C29.2965 12.3102 29.4857 12.2471 29.7695 12.1525L30.3685 11.9949L30.8415 12.1525L30.5892 12.3102C30.4631 12.4048 30.337 12.4993 30.274 12.5309C30.1794 12.5939 30.1478 12.6255 30.1163 12.6885C30.0848 12.72 30.0532 12.8147 30.0532 12.8777C30.0532 12.9408 30.0848 13.0353 30.1163 13.0669C30.1478 13.0984 30.2424 13.1615 30.337 13.1615C30.4631 13.193 30.5892 13.193 30.7784 13.193C30.9991 13.193 31.1568 13.193 31.2829 13.1615C31.409 13.1299 31.4721 13.1299 31.5351 13.0669C31.5667 13.0353 31.5982 12.9723 31.5982 12.8777C31.5982 12.7831 31.5667 12.7516 31.5351 12.7201C31.5036 12.6885 31.4405 12.657 31.346 12.657C31.2514 12.6254 31.1568 12.6254 30.9991 12.5939L29.9271 12.4993C29.7379 12.4678 29.5488 12.4362 29.4542 12.3417C29.3281 12.2471 29.265 12.1525 29.2019 12.0264C29.1704 11.9002 29.1389 11.7741 29.1704 11.648C29.2019 11.5219 29.2335 11.3958 29.3281 11.3012C29.3596 11.2067 29.4857 11.1436 29.6118 11.112ZM30.7469 8.96802C31.1883 8.96802 31.5667 8.99959 31.8189 9.09418C32.0711 9.18877 32.2603 9.28334 32.3864 9.47252C32.5125 9.63017 32.5756 9.88239 32.5756 10.1662C32.5756 10.4499 32.5125 10.6706 32.418 10.8598C32.2918 11.0174 32.1027 11.1435 31.8504 11.2381C31.5667 11.3012 31.2198 11.3643 30.7784 11.3643C30.337 11.3643 29.9902 11.3327 29.7064 11.2381C29.4227 11.1751 29.2335 11.049 29.1389 10.8598C29.0128 10.7021 28.9497 10.4499 28.9497 10.1662C28.9497 9.88239 29.0128 9.6617 29.1389 9.47252C29.265 9.31487 29.4542 9.18877 29.738 9.09418C29.9587 9.03112 30.3055 8.96802 30.7469 8.96802ZM30.7469 9.75625C30.5262 9.75625 30.3685 9.7878 30.3055 9.85086C30.2109 9.91392 30.1794 10.0085 30.1794 10.1662C30.1794 10.3238 30.2109 10.4184 30.3055 10.4814C30.4001 10.5445 30.5262 10.5761 30.7469 10.5761C30.9676 10.5761 31.1252 10.5445 31.2198 10.4814C31.3144 10.4184 31.346 10.3238 31.346 10.1662C31.346 10.0085 31.3144 9.91392 31.2198 9.85086C31.1252 9.7878 30.9676 9.75625 30.7469 9.75625ZM32.9855 9.09418L32.9224 9.59861L31.9135 9.75625L31.6297 9.09418H32.9855Z" fill="white"/>
<path d="M34.7837 7.58088V8.74745C34.7837 8.96816 34.7837 9.15731 34.7522 9.34648C34.7207 9.53566 34.6892 9.69331 34.6576 9.81942L34.7837 9.91403V12.7517H33.428V7.54932H34.7837V7.58088ZM36.171 8.96814C36.8962 8.96814 37.243 9.31498 37.243 10.0086V12.7517H35.8873V10.4185C35.8873 10.2924 35.8557 10.2293 35.8242 10.1663C35.7927 10.1348 35.6981 10.1032 35.572 10.1032C35.4459 10.1032 35.3197 10.1348 35.1621 10.1663C35.036 10.1978 34.8468 10.2609 34.6261 10.3555L34.5 9.7249C34.7522 9.47266 35.036 9.28347 35.3197 9.15735C35.6035 9.03123 35.8873 8.96814 36.171 8.96814Z" fill="white"/>
<path d="M40.6183 9.09323V9.94451H37.686V9.15628L38.4112 9.12472H40.6183V9.09323ZM39.6724 8.08423V11.4894C39.6724 11.584 39.7039 11.6786 39.767 11.7417C39.83 11.8047 39.9246 11.8047 40.0507 11.8047H40.4922L40.6498 12.6876C40.5552 12.7191 40.4291 12.7506 40.303 12.7822C40.1769 12.8137 40.0192 12.8137 39.8616 12.8452C39.7039 12.8452 39.6093 12.8768 39.4832 12.8768C39.1364 12.8768 38.8526 12.7821 38.6634 12.593C38.4743 12.4038 38.3482 12.1516 38.3482 11.8363V8.08423H39.6724Z" fill="white"/>
<path d="M44.937 7.54932C45.1893 7.54932 45.41 7.54935 45.5992 7.58088C45.7883 7.58088 45.9775 7.61239 46.1352 7.64392C46.2928 7.67545 46.482 7.70695 46.6396 7.77001L46.545 8.77901C46.3559 8.77901 46.1982 8.77901 46.0406 8.77901C45.8829 8.77901 45.6938 8.77901 45.5361 8.77901C45.3785 8.77901 45.1578 8.77901 44.9686 8.77901C44.8109 8.77901 44.6533 8.81053 44.5272 8.84206C44.401 8.87359 44.3065 8.96816 44.2434 9.06275C44.1803 9.15734 44.1173 9.31495 44.0858 9.50413C44.0542 9.69331 44.0542 9.94559 44.0542 10.2609C44.0542 10.6392 44.0857 10.923 44.1173 11.1437C44.1488 11.3644 44.2434 11.4905 44.338 11.5851C44.4326 11.6797 44.5902 11.7112 44.7794 11.7112C44.9055 11.7112 45.0316 11.7112 45.1262 11.6797C45.2208 11.6482 45.3154 11.6482 45.41 11.6167C45.5046 11.5851 45.5676 11.5536 45.6307 11.5221L45.7568 12.1211C45.6938 12.2157 45.5992 12.3418 45.4415 12.4364C45.3154 12.5625 45.1262 12.6571 44.9055 12.7517C44.6848 12.8463 44.4641 12.8778 44.1803 12.8778C43.802 12.8778 43.4867 12.7832 43.2345 12.594C42.9822 12.4049 42.793 12.1211 42.6985 11.7428C42.5723 11.3644 42.5093 10.8284 42.5093 10.1978C42.5093 9.53572 42.5723 8.99972 42.73 8.62137C42.8876 8.24301 43.1399 7.95922 43.4867 7.80157C43.9281 7.64392 44.3695 7.54932 44.937 7.54932ZM46.8919 9.81942V12.7517H45.8829L45.6938 11.9634L45.5676 11.7112V9.78794H46.8919V9.81942Z" fill="white"/>
<path d="M48.6269 9.09246L48.7846 9.84914L48.9107 9.94374V12.7814H47.5549V9.09246H48.6269ZM50.4241 8.9663L50.298 10.196H49.9512C49.7935 10.196 49.6359 10.1959 49.4467 10.2275C49.2575 10.259 49.0368 10.3221 48.7846 10.3851L48.69 9.65993C48.9422 9.43922 49.1945 9.25006 49.4467 9.12395C49.6989 8.99783 49.9512 8.93481 50.2034 8.93481H50.4241V8.9663Z" fill="white"/>
<path d="M52.6612 8.96802C53.1341 8.96802 53.544 9.03111 53.8278 9.15723C54.1115 9.28334 54.3322 9.50405 54.4583 9.78782C54.5845 10.0716 54.6475 10.4499 54.6475 10.9228C54.6475 11.3958 54.5845 11.7742 54.4583 12.0579C54.3322 12.3417 54.1115 12.5308 53.8278 12.657C53.544 12.7831 53.1341 12.8462 52.6612 12.8462C52.1882 12.8462 51.7783 12.7831 51.4946 12.657C51.2108 12.5308 50.9901 12.3417 50.864 12.0579C50.7379 11.7742 50.6748 11.3958 50.6748 10.9228C50.6748 10.4499 50.7379 10.0716 50.864 9.78782C50.9901 9.50405 51.2108 9.28334 51.4946 9.15723C51.7783 9.03111 52.1567 8.96802 52.6612 8.96802ZM52.6612 9.9139C52.5035 9.9139 52.3774 9.94545 52.3143 10.0085C52.2198 10.0716 52.1882 10.1661 52.1252 10.2922C52.0936 10.4499 52.0621 10.6391 52.0621 10.9228C52.0621 11.2066 52.0936 11.3958 52.1252 11.5534C52.1567 11.7111 52.2198 11.8057 52.3143 11.8372C52.4089 11.9003 52.5035 11.9003 52.6612 11.9003C52.8188 11.9003 52.9449 11.8688 53.008 11.8372C53.1026 11.7742 53.1656 11.6795 53.1972 11.5534C53.2287 11.3958 53.2602 11.2066 53.2602 10.9228C53.2602 10.6391 53.2287 10.4499 53.1972 10.2922C53.1656 10.1346 53.1026 10.04 53.008 10.0085C52.9134 9.94545 52.8188 9.9139 52.6612 9.9139Z" fill="white"/>
<path d="M56.567 9.09162V11.4248C56.567 11.5509 56.5985 11.614 56.63 11.677C56.6931 11.7401 56.7877 11.7401 56.8823 11.7401C57.0084 11.7401 57.1345 11.7086 57.2606 11.677C57.3867 11.6455 57.5444 11.5824 57.7335 11.4878L57.8281 12.1814C57.5759 12.4022 57.3237 12.5914 57.0714 12.6859C56.8192 12.8121 56.5669 12.8436 56.2832 12.8436C55.558 12.8436 55.2112 12.4968 55.2112 11.8031V9.06006H56.567V9.09162ZM58.9947 9.09162V12.7806H57.9227L57.7651 12.0238L57.639 11.9293V9.06006H58.9947V9.09162Z" fill="white"/>
<path d="M60.8255 9.09363L60.9516 9.72422L61.0777 9.8503V12.2781L61.0462 12.3727C61.0462 12.5303 61.0777 12.688 61.0777 12.8772C61.0777 13.0663 61.0777 13.2239 61.0777 13.3816V14.2014H59.7219V9.15667H60.8255V9.09363ZM62.3389 8.99902C62.8118 8.99902 63.1586 9.15662 63.3478 9.50345C63.537 9.85027 63.6631 10.3232 63.6631 10.9538C63.6631 11.4583 63.6001 11.8366 63.5055 12.1204C63.4109 12.4042 63.2532 12.5934 63.0325 12.688C62.8118 12.8141 62.5596 12.8456 62.2758 12.8456C61.992 12.8456 61.7398 12.8141 61.5191 12.7195C61.2669 12.6249 61.0777 12.4988 60.92 12.3096L61.0146 11.7421C61.1407 11.7736 61.2669 11.8051 61.3615 11.8682C61.4876 11.8997 61.6137 11.9313 61.7713 11.9313C61.8975 11.9313 61.992 11.8997 62.0866 11.8682C62.1497 11.8366 62.2128 11.7421 62.2443 11.5844C62.2758 11.4583 62.3073 11.2376 62.3073 10.9538C62.3073 10.6701 62.2758 10.4494 62.2443 10.3232C62.2128 10.1656 62.1497 10.071 62.0866 10.0395C62.0236 10.008 61.929 9.97639 61.8029 9.97639C61.6452 9.97639 61.5191 10.008 61.4245 10.0395C61.3299 10.071 61.2038 10.1341 61.0777 10.2286L60.8885 9.69266C60.9831 9.56654 61.0777 9.44039 61.2353 9.3458C61.393 9.25121 61.5506 9.15669 61.7398 9.09363C61.929 9.03057 62.1182 8.99902 62.3389 8.99902Z" fill="white"/>
</svg>
