<svg width="10" height="10" viewBox="0 0 10 10" fill="none" xmlns="http://www.w3.org/2000/svg">
<path d="M6.58118 5.39642C6.58118 5.68671 6.4951 5.97048 6.33383 6.21184C6.17255 6.45321 5.94332 6.64133 5.67514 6.75242C5.40695 6.8635 5.11184 6.89257 4.82713 6.83594C4.54242 6.77931 4.2809 6.63952 4.07563 6.43425C3.87037 6.22899 3.73058 5.96747 3.67395 5.68276C3.61732 5.39805 3.64638 5.10294 3.75747 4.83475C3.86856 4.56656 4.05668 4.33734 4.29805 4.17606C4.53941 4.01479 4.82318 3.92871 5.11346 3.92871C5.50259 3.92915 5.87565 4.08393 6.1508 4.35908C6.42596 4.63424 6.58073 5.0073 6.58118 5.39642ZM9.70007 3.37832V7.41453C9.6993 8.0955 9.42845 8.74836 8.94693 9.22989C8.46541 9.7114 7.81255 9.98226 7.13157 9.98303H3.09536C2.41438 9.98226 1.76152 9.7114 1.28 9.22989C0.798484 8.74836 0.527627 8.0955 0.526855 7.41453V3.37832C0.527627 2.69734 0.798484 2.04448 1.28 1.56296C1.76152 1.08144 2.41438 0.810586 3.09536 0.809814H7.13157C7.81255 0.810586 8.46541 1.08144 8.94693 1.56296C9.42845 2.04448 9.6993 2.69734 9.70007 3.37832ZM7.31504 5.39642C7.31504 4.96099 7.18592 4.53534 6.94401 4.1733C6.70209 3.81125 6.35825 3.52907 5.95597 3.36244C5.55369 3.1958 5.11102 3.15221 4.68396 3.23715C4.2569 3.3221 3.86461 3.53178 3.55672 3.83968C3.24882 4.14757 3.03914 4.53986 2.9542 4.96692C2.86925 5.39398 2.91285 5.83664 3.07948 6.23893C3.24611 6.64121 3.52829 6.98505 3.89034 7.22696C4.25238 7.46888 4.67803 7.598 5.11346 7.598C5.69716 7.59734 6.25675 7.36517 6.66948 6.95244C7.08221 6.53971 7.31438 5.98011 7.31504 5.39642ZM8.04889 3.01139C8.04889 2.90253 8.01661 2.79612 7.95614 2.70561C7.89566 2.61509 7.8097 2.54455 7.70913 2.50289C7.60856 2.46123 7.49789 2.45033 7.39113 2.47157C7.28436 2.49281 7.18629 2.54523 7.10932 2.6222C7.03234 2.69917 6.97992 2.79724 6.95868 2.90401C6.93745 3.01078 6.94835 3.12144 6.99001 3.22201C7.03166 3.32258 7.10221 3.40854 7.19272 3.46902C7.28323 3.5295 7.38964 3.56178 7.4985 3.56178C7.64447 3.56178 7.78447 3.50379 7.88769 3.40057C7.99091 3.29735 8.04889 3.15736 8.04889 3.01139Z" fill="white"/>
</svg>
