<svg viewBox="0 0 68 14" xmlns="http://www.w3.org/2000/svg">
<path d="M15.5471 13.7552C15.3652 13.7654 15.1428 13.7703 14.8932 13.7628C14.3491 13.7465 11.7453 13.6089 9.6551 11.5961C9.05878 11.0229 8.70682 10.4906 8.45905 10.1128C7.9491 9.33277 7.75437 8.70084 7.07167 6.8217C6.27607 4.63153 5.69831 2.80809 5.32324 1.56278C5.24217 1.3385 4.8671 0.300051 4.83035 0.210641C4.82846 0.204958 4.82277 0.193593 4.81406 0.180333C4.78375 0.135249 4.73298 0.106834 4.67388 0.106834H4.63638C4.61289 0.106834 4.59015 0.11138 4.56932 0.120093C4.56098 0.123882 4.50984 0.146614 4.48445 0.20117C4.48142 0.207989 4.47877 0.213672 4.47763 0.218219C4.22683 0.86114 4.00937 1.50861 3.82524 2.15948L1.23802 9.80066C1.20127 9.90636 1.16453 10.0124 1.12702 10.1181C1.02738 10.3742 0.885686 10.6743 0.68224 10.9899C0.474626 11.3123 0.251479 11.5745 0.0450013 11.7836C-0.0512285 11.8806 0.0169658 12.0454 0.154112 12.0454H1.10618C1.20771 12.0454 1.28235 11.9484 1.25431 11.851C1.20393 11.6764 1.15922 11.4612 1.14028 11.2142C1.13119 11.0827 1.13156 10.924 1.15695 10.7455C1.17324 10.6304 1.19711 10.5269 1.22325 10.4368L2.08818 7.88213C2.82847 7.85864 3.55057 7.97116 4.23441 8.2159C5.51343 8.67394 6.35146 9.48015 6.82882 10.0757C6.83185 10.0795 6.83451 10.0833 6.83754 10.0871C6.89058 10.1765 6.94551 10.267 7.00537 10.3602C7.09971 10.5069 7.19442 10.644 7.28724 10.7713C8.43783 12.3519 10.1097 13.4904 12.2162 13.8533C13.4838 14.0711 14.4564 13.9901 14.703 13.9609C15.0269 13.9222 15.3137 13.8666 15.555 13.8094C15.5872 13.8018 15.5812 13.7537 15.5475 13.7556L15.5471 13.7552ZM5.75438 7.71316C5.90327 8.13596 6.13135 8.7213 6.46739 9.39642C5.95821 8.90012 5.24634 8.37616 4.29843 8.03632C3.61384 7.7912 2.89212 7.67565 2.15259 7.6908L3.96959 2.32467C4.56477 4.12083 5.1592 5.91699 5.75438 7.71278V7.71316ZM3.93435 2.21934L3.92677 2.21669L3.93019 2.20646C3.9317 2.21063 3.93284 2.2148 3.93435 2.21896V2.21934Z" fill="currentColor" />
<path d="M58.8399 10.1742C58.4819 10.4762 57.9924 10.8145 57.3661 11.0683C55.1638 11.9613 52.1512 11.4665 50.5933 9.45779C50.039 8.74326 49.6522 7.86886 49.5049 6.8683C49.0597 4.28449 50.0648 1.33356 52.8043 0.50273C54.0845 0.114401 56.0462 0.0890177 57.2123 1.37751C57.5984 1.80411 57.8128 2.27806 57.9337 2.68571C57.9841 2.85544 58.228 2.849 58.2674 2.67624C58.2781 2.63077 58.2879 2.58379 58.2978 2.5353C58.3182 2.43112 58.4554 1.8651 58.3819 1.57717C58.2049 0.885377 56.7543 0.42658 56.1258 0.242076C54.4906 -0.19361 52.7577 -0.0325947 51.2628 0.691781C45.9364 3.26801 47.0294 11.2873 53.1548 12.1738C54.8861 12.4242 57.6041 12.0302 58.9251 10.2617L58.9289 10.2568C58.9729 10.1981 58.896 10.1257 58.8399 10.1731V10.1742Z" />
<path d="M66.824 10.6557C66.5728 10.9475 66.1894 11.3047 65.6446 11.5741C65.4419 11.6745 65.2456 11.748 65.0642 11.8022C65.0498 11.8063 65.035 11.8101 65.0206 11.8143C64.9698 11.8241 64.9153 11.8332 64.8573 11.8404C64.7994 11.8476 64.7444 11.8522 64.6929 11.8548H62.7789C62.7194 11.8545 62.6368 11.8457 62.5467 11.8094C62.541 11.8071 62.5361 11.8044 62.5304 11.8018C62.4421 11.7597 62.3527 11.7037 62.269 11.629C62.1337 11.5082 62.0648 11.3854 62.0113 11.2888C62.0113 11.2888 61.9958 11.26 61.981 11.2293C61.8954 11.0524 61.8284 10.6148 61.7927 10.3311C61.7738 10.1814 61.7651 10.031 61.7651 9.88023C61.7651 8.86413 61.7655 7.61466 61.7658 6.63191C61.7583 6.58455 61.7154 6.28222 61.9174 6.04998C61.986 5.9708 62.0682 5.91776 62.1492 5.88101C62.1833 5.86737 62.2265 5.85373 62.2781 5.84502C62.3205 5.83782 62.3576 5.8363 62.3902 5.83668H64.0193C64.0636 5.83668 64.114 5.84009 64.1697 5.84843C64.2133 5.85525 64.2523 5.86434 64.2883 5.87419C64.3004 5.8776 64.3121 5.88101 64.3243 5.8848C64.3262 5.88518 64.3277 5.88593 64.3296 5.88631C64.4932 5.93822 64.6774 6.02194 64.8596 6.15682C65.035 6.28677 65.1653 6.43149 65.2604 6.56598C65.3271 6.65956 65.4737 6.61448 65.4737 6.4993V5.00661C65.4737 4.89257 65.3282 4.84635 65.2616 4.93841C65.1608 5.07745 65.0217 5.22899 64.8312 5.3616C64.6626 5.47904 64.4944 5.55368 64.3432 5.60141C64.2917 5.61429 64.2337 5.62604 64.1697 5.63437C64.114 5.64157 64.0621 5.64536 64.0147 5.6465H62.4762C62.441 5.64763 62.397 5.6465 62.3478 5.63778C62.308 5.63096 62.2728 5.62111 62.2432 5.61088C62.1091 5.55822 61.9765 5.47563 61.8852 5.34114C61.7609 5.15815 61.7647 4.95735 61.7658 4.88272C61.7734 4.38869 61.7689 2.86265 61.7742 0.786513C61.7844 0.725517 61.8249 0.536087 61.9935 0.384165C62.0094 0.369769 62.0257 0.358025 62.042 0.345901C62.0629 0.331884 62.0814 0.32279 62.0951 0.316729C62.1614 0.288314 62.2262 0.286799 62.2909 0.285284H64.6936C64.7452 0.287936 64.8001 0.292482 64.8581 0.299681C64.9176 0.306879 64.9729 0.31635 65.0248 0.326579C65.038 0.330368 65.0517 0.333778 65.0649 0.337566C65.2468 0.391743 65.4426 0.46562 65.6453 0.565638C66.1901 0.835006 66.5735 1.19227 66.8247 1.48399C66.9054 1.57795 67.0592 1.5215 67.0592 1.39761C67.0592 1.36882 67.0592 1.34002 67.0592 1.31085C67.0592 0.639137 66.5148 0.0947187 65.8435 0.0947187H63.3843H61.6776V0.0958552L59.8443 0.0935822C59.7283 0.0935822 59.6628 0.22656 59.7344 0.317865C59.8215 0.42887 59.9128 0.562986 59.9958 0.72097C60.3341 1.36465 60.3099 1.98332 60.3099 2.22996C60.3084 4.89749 60.3065 7.56503 60.305 10.2326C60.305 10.3996 60.283 10.8183 60.0651 11.2892C59.9651 11.5051 59.8462 11.6813 59.7359 11.8185C59.6632 11.9094 59.7283 12.0439 59.8447 12.0439C60.4557 12.0439 61.0668 12.0439 61.6779 12.0439H65.6044H65.8435C66.5148 12.0439 67.0592 11.4995 67.0592 10.8278C67.0592 10.799 67.0592 10.7702 67.0592 10.741C67.0592 10.6171 66.9058 10.5607 66.8247 10.6546L66.824 10.6557Z" />
<path d="M38.8434 6.10453V6.08748C38.9048 2.63988 36.471 0.577379 33.7254 0.106838C33.3564 0.0371283 32.976 0 32.587 0C32.5112 0 32.4358 0.0018941 32.3608 0.00454611C29.7936 0.0564496 27.2659 1.4855 26.4802 4.45347C25.816 7.10547 26.7938 10.0018 29.1969 11.3142C29.8543 11.6889 30.5574 11.9389 31.2735 12.0738C31.697 12.167 32.1365 12.2166 32.5873 12.2166C33.2238 12.2166 33.8376 12.1185 34.4149 11.9374C36.8843 11.2456 38.884 9.17896 38.8438 6.10491L38.8434 6.10453ZM28.9715 1.45633C29.0715 1.36427 29.1697 1.28433 29.2625 1.21462C29.9615 0.738393 30.7673 0.407651 31.6357 0.266716C31.7292 0.256866 31.8289 0.249667 31.9342 0.245878C32.0547 0.241711 32.1676 0.242848 32.2733 0.247394C32.9048 0.298919 33.5614 0.480013 34.2172 0.806588C37.7512 2.46144 38.6756 8.70993 35.6815 11.0657C35.6549 11.0865 35.6284 11.107 35.6012 11.1267C35.6004 11.1274 35.6 11.1278 35.6 11.1278C35.5989 11.1289 35.5974 11.1297 35.5958 11.1308C35.6102 11.1127 35.6258 11.0948 35.6394 11.0755C35.6978 10.9918 35.7463 10.9031 35.7682 10.8024C35.8072 10.6247 35.7898 10.4519 35.714 10.2871C35.6174 10.0776 35.4538 9.94539 35.2318 9.88742C35.0901 9.85068 34.9495 9.86469 34.8124 9.9147C34.729 9.94539 34.6517 9.98706 34.579 10.0424C34.5744 10.0181 34.5707 9.99616 34.5665 9.97418C34.5104 9.69496 34.3418 9.5116 34.0819 9.40666C34.0456 9.39188 34.0058 9.38354 33.9671 9.37559C33.8573 9.35361 33.747 9.35361 33.6387 9.3843C33.4019 9.45136 33.2526 9.61578 33.1552 9.83249C33.1049 9.94501 33.0878 10.067 33.0852 10.1905C33.081 10.3788 33.1158 10.5614 33.1696 10.741C33.2261 10.9293 33.303 11.1092 33.392 11.2843C33.5008 11.4976 33.625 11.701 33.7644 11.8954H33.7637C33.7429 11.8984 33.7224 11.9018 33.7016 11.9048C29.8774 12.3796 27.5595 8.62886 27.6626 5.02592V5.00736C27.6542 3.61544 28.077 2.47091 28.7738 1.65106C28.8336 1.58741 28.8992 1.52187 28.9711 1.45557L28.9715 1.45633Z" />
<path d="M47.2603 0.163679H46.1226C45.9961 0.163679 45.9245 0.307644 45.9999 0.409557C46.1457 0.607699 46.3026 0.868354 46.4223 1.19341C46.5087 1.42755 46.5572 1.64577 46.5841 1.83368C46.5878 1.87498 46.5901 1.914 46.5913 1.95151V9.43887C42.9967 3.58817 41.5502 1.28396 41.2225 0.818345C41.2187 0.813419 41.2175 0.811524 41.2175 0.811524C40.9773 0.475857 40.6155 0.25271 40.2158 0.185652C40.1317 0.171255 40.0454 0.164057 39.9586 0.164057H39.2585C39.1937 0.164057 39.1463 0.212173 39.1387 0.267865C39.1342 0.2959 39.1395 0.325451 39.1577 0.351971C39.346 0.630052 39.5384 0.981632 39.6843 1.40747C39.6843 1.40747 39.6846 1.4081 39.6851 1.40936C39.7082 1.47831 39.7286 1.54537 39.7476 1.61129C39.7559 1.6435 39.7635 1.67987 39.7688 1.72116C39.7741 1.76511 39.7756 1.80489 39.7752 1.83974V10.369C39.7745 10.4171 39.7711 10.4701 39.7642 10.5266C39.7563 10.5902 39.7449 10.647 39.732 10.6989C39.6972 10.8315 39.6498 10.9657 39.5831 11.1312C39.4615 11.4354 39.3119 11.6832 39.1721 11.8764C39.0978 11.9791 39.1694 12.1216 39.2964 12.1216H40.4341C40.5606 12.1216 40.6322 11.9776 40.5568 11.8757C40.411 11.6775 40.2541 11.4169 40.1344 11.0918C40.048 10.8577 39.9995 10.6395 39.9726 10.4516C39.9688 10.4103 39.9666 10.3712 39.9654 10.3337V1.65751C42.1082 5.11459 44.251 8.57129 46.3939 12.028C46.4166 12.0617 46.4484 12.0882 46.4856 12.1041C46.4863 12.1041 46.4863 12.1049 46.4867 12.1049C46.5121 12.1155 46.5397 12.1212 46.5689 12.1212C46.6651 12.1212 46.7462 12.0579 46.7723 11.9704C46.778 11.9515 46.7811 11.9306 46.7811 11.9094V1.91589C46.7818 1.86778 46.7852 1.81474 46.792 1.75829C46.8 1.69464 46.8114 1.63781 46.8242 1.58591C46.8591 1.45331 46.9065 1.31919 46.9731 1.15363C47.0948 0.84941 47.2444 0.601638 47.3842 0.40842C47.4585 0.30575 47.3869 0.1633 47.2599 0.1633L47.2603 0.163679Z" />
<path d="M25.8393 0.0113664H24.7016C24.575 0.0113664 24.5034 0.155332 24.5788 0.257245C24.7247 0.455387 24.8815 0.716041 25.0012 1.0411C25.0872 1.27561 25.1361 1.49346 25.1626 1.68099C25.1664 1.72267 25.1691 1.76131 25.1702 1.79882V9.28656C21.5756 3.43586 20.1291 1.13165 19.8014 0.666032C19.7976 0.661107 19.7965 0.659212 19.7965 0.659212C19.6362 0.434928 19.4214 0.260655 19.1771 0.150028C19.1752 0.0716049 19.113 0 19.0233 0H17.8855C17.8621 0 17.8405 0.00492538 17.8215 0.0132602C17.7651 0.0200797 17.7253 0.0651634 17.7181 0.11593C17.7135 0.143966 17.7188 0.173517 17.737 0.200037C17.7382 0.201931 17.7397 0.204584 17.7416 0.206478C17.7461 0.219738 17.7537 0.232998 17.7624 0.245879C17.7787 0.268611 17.7961 0.291342 17.8124 0.316346C17.9632 0.553132 18.1113 0.837654 18.2326 1.1684C18.2902 1.35025 18.3258 1.51922 18.3474 1.66963C18.3512 1.71092 18.3531 1.74994 18.3542 1.78745V9.27519C14.7596 3.42449 13.3131 1.12028 12.9854 0.654666C12.9816 0.649741 12.9805 0.647847 12.9805 0.647847C12.7403 0.312179 12.3785 0.0890322 11.9788 0.0219744C11.8947 0.0075778 11.8083 0.000379228 11.7215 0.000379228H11.0214C10.9566 0.000379228 10.9093 0.0484938 10.9017 0.104186C10.8971 0.132221 10.9024 0.161772 10.9206 0.188292C11.1089 0.466374 11.3014 0.817954 11.4472 1.24379C11.4472 1.24379 11.4475 1.24442 11.448 1.24568C11.4715 1.31464 11.4916 1.38132 11.5109 1.44762C11.5192 1.47982 11.5268 1.51619 11.5317 1.5571C11.5374 1.60067 11.5385 1.64083 11.5385 1.67569V10.2049H11.5378C11.537 10.253 11.534 10.3057 11.5272 10.3625C11.5196 10.4258 11.5075 10.483 11.495 10.5349C11.4601 10.6675 11.4131 10.8016 11.3468 10.9668C11.2252 11.271 11.0756 11.5188 10.9358 11.712C10.8615 11.8147 10.9331 11.9571 11.06 11.9571H12.1978C12.3243 11.9571 12.3959 11.8132 12.3205 11.7112C12.1746 11.5131 12.0178 11.2524 11.8981 10.9274C11.8113 10.6929 11.7632 10.475 11.7359 10.2875C11.7321 10.2458 11.7302 10.2072 11.7291 10.1697V1.49346C13.7912 4.82134 15.8541 8.14809 17.9162 11.4756C17.9966 11.6048 18.0765 11.7347 18.1568 11.8639C18.1795 11.8976 18.2114 11.9242 18.2485 11.9401C18.2492 11.9401 18.2492 11.9408 18.2496 11.9408C18.275 11.9514 18.3027 11.9571 18.3318 11.9571C18.4281 11.9571 18.5091 11.8939 18.5353 11.8063C18.541 11.7874 18.544 11.7666 18.544 11.7453V1.75184C18.5451 1.70372 18.5485 1.65106 18.5554 1.59423C18.558 1.57453 18.5603 1.55559 18.5637 1.53703C20.7001 4.98349 22.8365 8.42996 24.9725 11.8757C24.9952 11.9094 25.027 11.9359 25.0641 11.9518C25.0649 11.9518 25.0649 11.9526 25.0653 11.9526C25.0907 11.9632 25.1183 11.9689 25.1475 11.9689C25.2437 11.9689 25.3248 11.9056 25.3509 11.8181C25.3566 11.7991 25.3596 11.7783 25.3596 11.7571V1.76358C25.3604 1.71547 25.3634 1.66281 25.3703 1.60598C25.3786 1.54271 25.39 1.4855 25.4025 1.4336C25.4373 1.30138 25.4847 1.16688 25.5513 1.0017C25.673 0.697477 25.8226 0.449705 25.9624 0.256487C26.0367 0.153817 25.9651 0.0113664 25.8381 0.0113664H25.8393Z" />
</svg>
