<svg width="10" height="9" viewBox="0 0 10 9" fill="none" xmlns="http://www.w3.org/2000/svg">
<path d="M9.5494 0.473282C9.51485 0.374446 9.47366 0.346772 9.40988 0.323052C9.27035 0.270339 9.03383 0.349408 9.03383 0.349408C9.03383 0.349408 0.65046 3.33689 0.172094 3.66766C0.0684475 3.73882 0.0338989 3.77968 0.0179533 3.82844C-0.064432 4.06432 0.193354 4.16843 0.193354 4.16843L2.35398 4.86687C2.35398 4.86687 2.43503 4.87873 2.46294 4.86028C2.95459 4.55191 7.40871 1.76342 7.66517 1.66986C7.70636 1.658 7.7356 1.67117 7.72762 1.69885C7.62531 2.05729 3.75718 5.46648 3.75718 5.46648C3.75718 5.46648 3.74257 5.48493 3.73326 5.50601L3.72795 5.50338L3.52597 7.62901C3.52597 7.62901 3.44093 8.28001 4.09868 7.62901C4.56243 7.16909 5.01024 6.78561 5.2348 6.59848C5.9776 7.10715 6.77753 7.66986 7.12169 7.96373C7.29444 8.11133 7.4406 8.13505 7.55887 8.1311C7.88575 8.11924 7.97744 7.76211 7.97744 7.76211C7.97744 7.76211 9.50555 1.66459 9.55605 0.847541C9.56136 0.767155 9.568 0.717078 9.568 0.66173C9.568 0.585296 9.56136 0.508863 9.5494 0.471964V0.473282Z" fill="white"/>
</svg>
