<svg width="15" height="9" viewBox="0 0 15 9" fill="none" xmlns="http://www.w3.org/2000/svg">
<path d="M14.8203 0.793375C14.8354 0.817729 14.8506 0.840731 14.8657 0.865085C14.8877 1.0261 14.8602 1.17763 14.7928 1.32647C14.746 1.43065 14.6992 1.53483 14.6538 1.64037C14.6304 1.67149 14.6139 1.70532 14.6015 1.7432C14.4831 1.95563 14.3345 2.15046 14.2079 2.35747C14.1886 2.3683 14.1872 2.38724 14.1872 2.40618C14.1597 2.44677 14.1184 2.47383 14.0923 2.51848C14.0538 2.58478 14.0056 2.64567 13.9574 2.70656C13.8556 2.83509 13.7579 2.96363 13.667 3.09893C13.6216 3.15711 13.5776 3.21529 13.5322 3.27483C13.44 3.38713 13.3464 3.49808 13.2542 3.61038C13.2115 3.69968 13.1386 3.77004 13.0835 3.85122C13.0546 3.89451 13.0147 3.92834 12.9913 3.9757C12.8964 4.08394 12.8152 4.19895 12.7422 4.32342C12.6899 4.41272 12.6431 4.49932 12.6184 4.59944C12.6032 4.61838 12.6115 4.64003 12.6115 4.66168C12.584 4.70498 12.6156 4.74963 12.6101 4.79428C12.606 4.82269 12.6156 4.8511 12.6266 4.87681C12.6762 4.98911 12.7381 5.09465 12.8303 5.17854C12.9225 5.26242 12.9996 5.35984 13.0932 5.44238C13.2404 5.57227 13.3794 5.71028 13.5225 5.84558C13.5982 5.92 13.6753 5.99441 13.751 6.07018C13.8143 6.13242 13.8762 6.19601 13.9395 6.25825C13.9877 6.30696 14.0441 6.34891 14.0827 6.40438C14.1239 6.46391 14.1762 6.51127 14.2285 6.55863C14.2313 6.56133 14.2354 6.56539 14.2382 6.5681C14.2409 6.57216 14.245 6.57621 14.2478 6.57892C14.2602 6.5938 14.2712 6.60733 14.2836 6.62222C14.3042 6.67228 14.3524 6.69934 14.384 6.73993C14.4859 6.86712 14.5822 6.99971 14.6717 7.13637C14.7171 7.20537 14.7611 7.27573 14.7983 7.35015C14.8396 7.43268 14.863 7.51657 14.8754 7.60857C14.885 7.68434 14.8726 7.74252 14.8382 7.80476C14.7721 7.92383 14.6552 7.9793 14.5368 8.02666C14.4515 8.06049 14.3648 8.09431 14.2698 8.0916C14.168 8.0916 14.0648 8.09161 13.9629 8.09025C13.9326 8.09025 13.9024 8.09161 13.8762 8.10919C13.8528 8.11461 13.8281 8.09702 13.8033 8.1119C13.8005 8.1119 13.7964 8.11325 13.7936 8.11461C13.4964 8.10919 13.1991 8.10919 12.9019 8.11461C12.8578 8.12543 12.8097 8.11596 12.7656 8.13084H12.3101C12.2991 8.1322 12.2894 8.1322 12.2784 8.1322C12.1807 8.13625 12.0871 8.11731 11.9949 8.09025C11.7445 8.01854 11.5105 7.91571 11.3192 7.73576C11.2064 7.62887 11.0797 7.53822 10.971 7.42727C10.9463 7.38127 10.9201 7.33662 10.8747 7.3055C10.7907 7.20808 10.7082 7.10931 10.6228 7.01324C10.5582 6.94153 10.4894 6.87388 10.4233 6.80352C10.4123 6.79405 10.4026 6.78323 10.3916 6.77376C10.2967 6.67769 10.2058 6.57757 10.104 6.48827C10.0159 6.41114 9.9196 6.33943 9.79987 6.31237C9.78748 6.30155 9.77372 6.29614 9.7572 6.29614C9.64573 6.29073 9.54664 6.31779 9.45719 6.38814C9.41453 6.42197 9.38975 6.46391 9.35535 6.50315C9.3237 6.53968 9.29617 6.57621 9.28378 6.62222C9.23562 6.70475 9.19984 6.79135 9.18057 6.88741C9.14066 7.09442 9.09387 7.30008 9.10488 7.51251C9.11176 7.64511 9.06909 7.76553 9.01955 7.88459C9.00716 7.91436 8.98927 7.94413 8.96175 7.96713C8.87642 8.03748 8.77046 8.06049 8.66862 8.09296C8.62045 8.09296 8.5709 8.09296 8.52274 8.09431C8.51586 8.09431 8.50897 8.09431 8.50209 8.09431C8.32319 8.09431 8.1429 8.09431 7.96399 8.09431C7.95711 8.09431 7.95023 8.09431 7.94335 8.09431C7.76995 8.09431 7.59654 8.09431 7.42452 8.09431C7.33644 8.08349 7.24836 8.06996 7.16166 8.05372C7.0089 8.0226 6.85063 8.01584 6.70338 7.95495C6.68686 7.94818 6.66622 7.95089 6.64695 7.94954C6.57401 7.92654 6.50107 7.90353 6.42814 7.88189C6.40061 7.87106 6.37446 7.85753 6.34694 7.85077C6.20106 7.81423 6.06757 7.74388 5.92582 7.69382C5.73315 7.62616 5.5625 7.51116 5.38909 7.40562C5.29826 7.35015 5.21569 7.2852 5.12073 7.23649C5.09871 7.20267 5.0643 7.18643 5.02852 7.17425C5.02302 7.15396 5.00513 7.14584 4.98861 7.13772C4.93494 7.10795 4.8854 7.06872 4.84273 7.02813C4.70236 6.89418 4.54409 6.78052 4.4051 6.64522C4.39409 6.63575 4.38445 6.62492 4.37344 6.61545C4.32528 6.56133 4.25922 6.52074 4.21931 6.46391C4.15463 6.37326 4.07481 6.29478 4.00599 6.20819C3.9592 6.15001 3.91654 6.08912 3.85461 6.04447C3.84773 6.02147 3.82984 6.0093 3.81195 5.99441C3.76791 5.93894 3.71836 5.88617 3.68121 5.82664C3.59451 5.68863 3.48854 5.5655 3.39495 5.43291C3.37293 5.36661 3.311 5.33278 3.27247 5.28001C3.2477 5.24348 3.22293 5.2083 3.19815 5.17177C3.1087 5.04459 3.02475 4.9147 2.94768 4.78075C2.92291 4.70904 2.87199 4.65356 2.8252 4.59674C2.77566 4.52638 2.73437 4.45061 2.68895 4.37754C2.60638 4.24224 2.51968 4.10964 2.44949 3.96758C2.40958 3.8864 2.34765 3.8201 2.30774 3.74027C2.28848 3.68209 2.26233 3.62661 2.22655 3.57655C2.18664 3.5089 2.14122 3.4426 2.10544 3.37225C2.04626 3.25318 1.98296 3.13547 1.91277 3.02316C1.86185 2.94063 1.81919 2.85539 1.77515 2.77015C1.70771 2.64161 1.64028 2.51307 1.57147 2.38453C1.57147 2.35612 1.55633 2.33447 1.53981 2.31418C1.46687 2.17211 1.39394 2.02869 1.32237 1.88662C1.31962 1.86091 1.33201 1.8325 1.3031 1.81356C1.3031 1.79461 1.29347 1.77838 1.28384 1.76214C1.22879 1.67014 1.18475 1.57407 1.13933 1.47801C1.10493 1.40765 1.07465 1.33459 1.043 1.26288C1.03887 1.22499 1.01823 1.19522 1.00034 1.16275C0.974189 1.06804 0.950793 0.973327 0.968684 0.873203C0.978318 0.817729 1.01135 0.78255 1.05401 0.752784C1.10906 0.713546 1.17374 0.695957 1.24117 0.683779C1.28384 0.683779 1.3265 0.675661 1.36916 0.674308C1.73386 0.662131 2.09856 0.691898 2.46188 0.654013C2.60363 0.639129 2.74813 0.649954 2.89126 0.649954C3.06053 0.649954 3.22981 0.649954 3.39908 0.649954H3.40321H3.40734C3.51744 0.686485 3.63304 0.706781 3.728 0.778491C3.78305 0.810964 3.81608 0.861026 3.84635 0.9165C3.88626 0.990917 3.90966 1.0721 3.95783 1.14246C4.02251 1.32376 4.11334 1.49424 4.18628 1.67284C4.20142 1.71614 4.22206 1.75673 4.24821 1.79462C4.25234 1.82303 4.27436 1.84197 4.28674 1.86497C4.39959 2.08146 4.49317 2.30741 4.63493 2.50901C4.65282 2.55637 4.6652 2.60643 4.70374 2.64296C4.72163 2.69979 4.77943 2.7282 4.7987 2.78638C4.81383 2.83374 4.84549 2.87298 4.87301 2.91357C4.91843 2.98257 4.96246 3.05158 5.00788 3.12058C5.01338 3.13411 5.01751 3.15035 5.02439 3.16253C5.10422 3.28971 5.18954 3.41419 5.28588 3.5292C5.32579 3.59685 5.36982 3.66179 5.43175 3.71321C5.43588 3.73621 5.44689 3.7538 5.46341 3.76868C5.49093 3.79439 5.51846 3.81874 5.54323 3.84716C5.61617 3.9351 5.70149 4.00681 5.79508 4.07041C5.85563 4.10694 5.92169 4.13265 5.98912 4.13941C6.11711 4.15159 6.20244 4.088 6.26437 3.97975C6.3318 3.86475 6.34419 3.73486 6.38272 3.61173C6.38823 3.54679 6.40199 3.48319 6.41162 3.41825C6.43364 3.28836 6.42263 3.15711 6.44465 3.02858V2.51848C6.46254 2.50495 6.46254 2.49142 6.44465 2.47925C6.44465 2.43866 6.44465 2.39671 6.44327 2.35612C6.44603 2.32365 6.45015 2.29118 6.44052 2.26006C6.42951 2.20729 6.42263 2.15452 6.42538 2.1004C6.42813 2.04628 6.42538 1.99216 6.42263 1.93939C6.42125 1.89474 6.43502 1.84874 6.41437 1.80544C6.40887 1.7635 6.39923 1.7229 6.39786 1.68096C6.39235 1.5876 6.34969 1.50371 6.33731 1.41171C6.32492 1.32241 6.28226 1.23852 6.22308 1.17222C6.11573 1.05451 5.9905 0.958444 5.82535 0.927324C5.75517 0.913794 5.69186 0.875909 5.61754 0.877262C5.55974 0.878615 5.55424 0.866438 5.57488 0.809611C5.61617 0.700016 5.69874 0.625599 5.79232 0.560654C5.84324 0.510592 5.91068 0.48759 5.96848 0.449706C6.03591 0.437528 6.10197 0.418586 6.16665 0.399644C6.3318 0.349582 6.5052 0.352288 6.6731 0.323874C6.68411 0.323874 6.69375 0.323874 6.70475 0.323874C6.71164 0.323874 6.71852 0.323874 6.7254 0.322521C6.72953 0.322521 6.73366 0.319815 6.73778 0.318462C6.86715 0.298167 6.99789 0.311697 7.12863 0.304932C7.18368 0.304932 7.2401 0.304932 7.29515 0.304932C7.36809 0.304932 7.43965 0.306285 7.51259 0.306285C7.74517 0.306285 7.97638 0.29952 8.20758 0.330639C8.29841 0.356347 8.39612 0.342816 8.48696 0.369877C8.49521 0.372583 8.50209 0.376642 8.51035 0.377995C8.66862 0.403703 8.82 0.44294 8.94386 0.552536C8.95349 0.606657 9.00716 0.633717 9.02643 0.681073C9.0512 0.74196 9.07047 0.805552 9.09249 0.867791C9.10212 0.950326 9.11864 1.03286 9.12139 1.11675C9.12552 1.2737 9.12139 1.43065 9.12139 1.58895C9.12139 1.64172 9.10212 1.69314 9.11038 1.74726L9.10625 1.75132V1.75538C9.09662 1.77838 9.10212 1.80138 9.10075 1.82573C9.09524 1.96374 9.11313 2.10175 9.08974 2.23841C9.08148 2.24653 9.08148 2.256 9.08561 2.26547C9.08561 2.27359 9.08561 2.28035 9.08423 2.28847C9.08423 2.29524 9.08423 2.30065 9.08423 2.30741C9.08423 2.31824 9.08423 2.32771 9.08423 2.33853C9.08423 2.41024 9.08423 2.4806 9.08423 2.55231C9.08423 2.7025 9.08423 2.85133 9.08423 3.00152C9.08423 3.02858 9.08423 3.05564 9.08423 3.08405C9.08423 3.17876 9.08423 3.27347 9.08423 3.36954C9.08423 3.42772 9.08423 3.4859 9.08423 3.54408C9.09662 3.58061 9.09937 3.6185 9.10488 3.65638C9.11451 3.72539 9.11451 3.79845 9.1558 3.86069C9.18057 3.95134 9.2425 4.02035 9.30718 4.08258C9.34434 4.11776 9.40214 4.157 9.45444 4.14212C9.56316 4.111 9.67463 4.07447 9.74757 3.97705C9.80537 3.94728 9.85216 3.90534 9.89207 3.85663C9.98015 3.74974 10.0847 3.65503 10.1563 3.53461C10.188 3.51567 10.1962 3.48049 10.2196 3.45613C10.3063 3.36142 10.3655 3.24777 10.4426 3.14629C10.466 3.11111 10.499 3.08134 10.5059 3.03669C10.5774 2.98393 10.6008 2.90004 10.6449 2.82968C10.7137 2.71873 10.7907 2.61184 10.8444 2.49278C10.8692 2.44948 10.8871 2.40212 10.9174 2.36018C10.9903 2.2587 11.0371 2.1437 11.0963 2.0341C11.1389 1.9651 11.172 1.89203 11.2077 1.81897C11.3096 1.59166 11.4114 1.36571 11.5133 1.1384C11.5518 1.02474 11.6055 0.917853 11.6578 0.809611C11.6715 0.798787 11.6853 0.789315 11.6977 0.778491C11.7775 0.713546 11.8656 0.671602 11.9729 0.675661C12.0748 0.67972 12.1766 0.675661 12.2784 0.675661C12.4862 0.675661 12.694 0.675661 12.9019 0.675661C13.1097 0.675661 13.3161 0.675661 13.5239 0.675661C13.7152 0.675661 13.9065 0.675661 14.0992 0.675661C14.1253 0.675661 14.1515 0.678367 14.1762 0.668896C14.2285 0.66619 14.2795 0.649954 14.3331 0.654013C14.3744 0.656719 14.4129 0.674308 14.4529 0.674308C14.5946 0.671602 14.7185 0.709487 14.8217 0.808258L14.8203 0.793375Z" fill="white"/>
</svg>
