<svg width="64" height="20" fill="none" xmlns="http://www.w3.org/2000/svg"><path d="M5.815 12.884c.092 1.584.092 3.534 0 5.848-1.888-.853-3.35-2.07-4.355-3.594C.333 13.402-.124 11.362.03 9.017c.122-1.828.73-3.472 1.888-4.934a10.823 10.823 0 0 1 3.807-3.076l.03.03c.03 0 .03.03.061.03a61.118 61.118 0 0 1 0 5.787c-.822.153-1.4.214-1.797.092-.091-.183-.152-.518-.091-1.005.03-.518.03-.853-.06-1.005-.305.091-.64.487-1.036 1.157-.853 1.523-1.158 3.32-.823 5.421.213 1.431.823 2.589 1.797 3.442.122-.153.152-.457.122-.914-.03-.61-.03-.975-.03-1.127a5.813 5.813 0 0 1 1.918-.03ZM12.7 8.866c.091 3.35.091 6.731 0 10.081-.792.335-1.736.488-2.863.488s-2.071-.153-2.833-.488c-.121-1.34-.152-3.38-.06-6.182.335-.152.974-.183 1.827-.061.03.091.03.974 0 2.65-.03 1.279 0 1.98.06 2.1.123.184.397.305.854.275.365 0 .7-.06 1.005-.183.152-2.07.182-4.324.09-6.76-.364-.123-.974-.123-1.857-.123-.944.03-1.584 0-1.919-.06-.09-5.209-.121-8.59-.06-10.203.76-.274 1.705-.427 2.862-.396 1.097 0 2.04.152 2.863.396a72.589 72.589 0 0 1 0 6.304 4.463 4.463 0 0 1-1.797 0c-.06-.579-.06-1.37-.06-2.345 0-1.34.03-2.132.03-2.406-.183-.152-.488-.244-.914-.244-.426 0-.761.03-1.035.153-.061.73-.061 1.857-.061 3.35 0 1.918.03 3.045.03 3.38.213.092 1.066.153 2.559.213l1.279.061Zm3.29 8.59c-.883.67-1.584 1.096-2.162 1.218V1.284c0-.06.06-.122.091-.152 2.589 1.127 4.294 3.045 5.117 5.786-.823.092-1.401.122-1.797.061-.153-.122-.335-.487-.61-1.066-.213-.456-.456-.761-.76-.883-.184 2.376-.214 5.695-.123 9.929.366-.153.762-.731 1.249-1.706.396-.853.64-1.584.64-2.193 0-.122-.122-.182-.366-.182-.304 0-.457 0-.487-.03a5.928 5.928 0 0 1 0-1.798 13.739 13.739 0 0 1 2.74 0c.245 3.503-.943 6.305-3.532 8.406ZM24.567.138c.252 0 .473 0 .662.032.19 0 .347.031.504.063l.473.094-.094 1.01c-.158 0-.316-.032-.473-.032h-1.073c-.188 0-.346.031-.472.126s-.19.22-.252.441a6.01 6.01 0 0 0-.063.883c0 .379.031.694.063.883.031.22.126.347.252.441.126.095.284.127.473.127h.914c.252 0 .473-.032.725-.064l.095 1.01a3.327 3.327 0 0 1-.757.189 7.586 7.586 0 0 1-.977.063c-.536 0-.978-.095-1.325-.253-.315-.157-.567-.441-.725-.82-.157-.378-.22-.914-.22-1.544 0-.662.063-1.167.22-1.545.158-.379.379-.662.726-.82.346-.19.788-.284 1.324-.284Zm3.343 1.515.157.757.126.094v2.838h-1.356v-3.69h1.072Zm1.797-.095-.127 1.23h-.346c-.158 0-.316 0-.505.032-.189.031-.41.094-.662.157l-.095-.725c.253-.22.505-.41.757-.536.252-.126.505-.19.757-.19h.22v.032Zm2.24 0c.662 0 1.135.094 1.418.315.284.22.41.536.41.978 0 .346-.094.599-.283.756-.19.158-.536.253-1.01.253h-2.017v-.663h1.64c.157 0 .283-.031.315-.063a.489.489 0 0 0 .063-.252c0-.158-.032-.252-.127-.284-.063-.063-.189-.063-.378-.063-.158 0-.315 0-.41.063-.094.032-.157.126-.189.253a2.661 2.661 0 0 0-.063.599c0 .252.032.473.063.63a.483.483 0 0 0 .22.316c.127.063.285.094.474.094.157 0 .378 0 .63-.031.253 0 .536-.032.82-.063l.126.82c-.157.094-.347.125-.536.188-.189.032-.378.064-.599.095-.189.032-.41.032-.599.032-.504 0-.883-.063-1.198-.221a1.23 1.23 0 0 1-.63-.63c-.127-.284-.19-.631-.19-1.073 0-.473.063-.883.19-1.166a1.23 1.23 0 0 1 .63-.63c.347-.19.725-.253 1.23-.253Zm5.454 1.545v.693h-1.576c-.126 0-.19.032-.252.095-.063.063-.063.126-.063.22v.127c0 .094.031.157.094.22.063.064.158.064.284.064a.84.84 0 0 0 .378-.095c.126-.063.284-.126.41-.22a1.65 1.65 0 0 0 .347-.316v.473a.745.745 0 0 1-.19.284c-.094.126-.188.252-.314.347-.127.126-.284.22-.474.315-.189.095-.41.126-.63.126-.22 0-.441-.032-.63-.126-.19-.095-.347-.19-.442-.347-.126-.158-.158-.347-.158-.567v-.379c0-.284.095-.536.316-.693.22-.158.504-.253.85-.253h2.05v.032Zm-1.009-1.545c.347 0 .6.031.852.126.22.095.41.252.536.441.126.221.189.505.189.852V5.34h-1.072l-.19-.788-.094-.126V3.008c0-.157-.032-.252-.126-.315-.063-.063-.19-.095-.378-.095h-.726c-.283 0-.567.032-.882.032l-.127-.883c.19-.031.41-.063.631-.095.22-.031.505-.063.725-.063a5.63 5.63 0 0 1 .662-.031Zm4.915.094v.85h-2.932v-.787l.725-.032h2.207v-.031Zm-.945-.978V4.08c0 .095.031.19.094.253s.158.063.284.063h.441l.158.882c-.095.032-.22.063-.347.095-.126.032-.284.032-.441.063-.158 0-.253.032-.379.032-.346 0-.63-.095-.82-.284a1.044 1.044 0 0 1-.315-.757V.674h1.325Zm2.43-.661c.252 0 .378.126.378.41V.8c0 .252-.126.41-.378.41h-.568c-.252 0-.378-.126-.378-.41V.423c0-.252.126-.41.378-.41h.568Zm.378 1.64V5.34h-1.324V1.652h1.324Zm4.757-.001-1.135 3.374c-.031.094-.095.189-.157.22-.064.063-.158.095-.284.095h-1.167a.358.358 0 0 1-.252-.095.573.573 0 0 1-.158-.22L43.64 1.652h1.419l.536 2.144c.032.095.063.22.063.347.032.126.032.22.063.347h.095c.031-.126.031-.221.063-.347.031-.126.031-.22.063-.347l.536-2.144h1.45Zm2.148-.094c.662 0 1.135.094 1.419.315.284.22.41.536.41.978 0 .346-.095.599-.284.756-.19.158-.536.253-1.009.253h-2.018v-.663h1.64c.157 0 .284-.031.315-.063a.489.489 0 0 0 .063-.252c0-.158-.031-.252-.126-.284-.063-.063-.19-.063-.378-.063-.158 0-.316 0-.41.063-.095.032-.158.126-.19.253a2.662 2.662 0 0 0-.063.599c0 .252.032.473.063.63a.483.483 0 0 0 .221.316c.126.063.284.094.473.094.158 0 .379 0 .63-.031.253 0 .537-.032.82-.063l.127.82c-.158.094-.347.125-.536.188-.19.032-.379.064-.6.095-.189.032-.41.032-.599.032-.504 0-.882-.063-1.198-.221a1.23 1.23 0 0 1-.63-.63c-.126-.284-.19-.631-.19-1.073 0-.473.064-.883.19-1.166a1.23 1.23 0 0 1 .63-.63c.379-.19.757-.253 1.23-.253ZM24.316 7.55c.252 0 .536.03.883.062.315.032.63.095.914.19l-.095.914h-1.986c-.063 0-.126.031-.19.031-.03.032-.094.064-.094.095-.031.032-.031.095-.031.19 0 .125.031.22.094.283.063.063.19.126.379.19l.945.346c.41.158.694.378.883.599.158.252.252.536.252.946 0 .284-.031.536-.094.725a1.03 1.03 0 0 1-.347.473c-.158.126-.347.19-.63.252a3.982 3.982 0 0 1-.946.095c-.158 0-.442 0-.757-.032a8.5 8.5 0 0 1-1.135-.189l.094-.977c.284 0 .568 0 .789.031h1.009c.157 0 .283 0 .378-.031a.512.512 0 0 0 .19-.095.337.337 0 0 0 .062-.189c0-.095 0-.158-.031-.19a.247.247 0 0 0-.126-.125c-.063-.032-.158-.063-.253-.095l-1.009-.41c-.41-.157-.693-.378-.85-.599-.159-.22-.253-.536-.253-.914 0-.284.031-.536.126-.725a.815.815 0 0 1 .347-.442 1.47 1.47 0 0 1 .63-.22c.19-.158.505-.19.852-.19Zm3.529-.128c.252 0 .378.126.378.41v.378c0 .252-.126.41-.378.41h-.568c-.252 0-.378-.126-.378-.41v-.378c0-.252.126-.41.378-.41h.568Zm.378 1.671v3.689h-1.356V9.093h1.356Zm1.389 2.019.63.126c-.063.032-.094.063-.126.158-.031.063-.031.126.032.22.031.064.126.095.252.127l1.356.126c.41.031.694.157.883.315.157.19.252.442.252.82 0 .347-.063.599-.22.757-.127.189-.348.283-.663.346-.284.063-.694.095-1.198.095a9.3 9.3 0 0 1-1.04-.063c-.253-.032-.473-.095-.631-.19a.756.756 0 0 1-.315-.315 1.2 1.2 0 0 1-.095-.504c0-.158.032-.284.095-.41a.756.756 0 0 1 .315-.315c.158-.095.347-.158.63-.252l.6-.158.473.158-.253.157a3.11 3.11 0 0 1-.315.22c-.095.064-.126.096-.158.159a.338.338 0 0 0-.063.189c0 .063.032.157.063.189a.36.36 0 0 0 .221.095c.126.031.252.031.441.031.221 0 .379 0 .505-.031.126-.032.19-.032.252-.095.032-.032.063-.095.063-.19 0-.094-.031-.125-.063-.157-.031-.032-.095-.063-.189-.063-.095-.032-.19-.032-.347-.063l-1.072-.095c-.19-.031-.378-.063-.473-.157a.802.802 0 0 1-.252-.316c-.032-.126-.063-.252-.032-.378.032-.126.063-.252.158-.347.032-.094.158-.157.284-.189Zm1.135-2.144c.441 0 .82.032 1.072.126.252.095.441.19.567.379.127.157.19.41.19.693 0 .284-.063.505-.158.694-.126.157-.315.284-.568.378a4.75 4.75 0 0 1-1.072.126c-.441 0-.788-.031-1.072-.126-.283-.063-.473-.189-.567-.378-.126-.158-.19-.41-.19-.694s.064-.504.19-.693c.126-.158.315-.284.599-.379.22-.063.567-.126 1.009-.126Zm0 .788c-.22 0-.378.032-.442.095-.094.063-.126.157-.126.315s.032.252.127.315c.094.063.22.095.44.095.222 0 .38-.032.474-.095.094-.063.126-.157.126-.315s-.032-.252-.126-.315c-.095-.063-.252-.095-.473-.095Zm2.239-.662-.064.505-1.008.157-.284-.662h1.356Zm1.798-1.514v1.167c0 .221 0 .41-.032.6a6.219 6.219 0 0 1-.094.472l.126.095v2.838h-1.356V7.549h1.356v.032Zm1.387 1.388c.725 0 1.072.347 1.072 1.04v2.744h-1.356v-2.334a.483.483 0 0 0-.063-.252c-.031-.031-.126-.063-.252-.063s-.252.032-.41.063a3.769 3.769 0 0 0-.536.19l-.126-.631c.252-.252.536-.442.82-.568.283-.126.567-.189.851-.189Zm4.447.125v.852h-2.932v-.789l.725-.031h2.207v-.032Zm-.946-1.009v3.405c0 .095.032.19.095.253s.158.063.284.063h.441l.158.883a5.13 5.13 0 0 1-.347.094c-.126.032-.284.032-.441.063-.158 0-.253.032-.379.032-.347 0-.63-.095-.82-.284a1.045 1.045 0 0 1-.315-.757V8.084h1.324Zm5.265-.534c.252 0 .473 0 .662.03.19 0 .379.032.536.064.158.031.347.063.505.126l-.095 1.009h-1.576a1.86 1.86 0 0 0-.442.063.503.503 0 0 0-.284.22 1.182 1.182 0 0 0-.157.442c-.032.19-.032.442-.032.757 0 .378.032.662.063.883a.73.73 0 0 0 .221.441c.095.095.252.126.441.126.127 0 .253 0 .347-.031.095-.032.19-.032.284-.063.095-.032.158-.063.22-.095l.127.6a.99.99 0 0 1-.316.314c-.126.127-.315.221-.535.316-.221.094-.442.126-.726.126-.378 0-.693-.095-.946-.284-.252-.19-.441-.473-.535-.851-.127-.379-.19-.915-.19-1.545 0-.662.063-1.198.221-1.577.158-.378.41-.662.757-.82a4.106 4.106 0 0 1 1.45-.252Zm1.955 2.27v2.932h-1.01l-.188-.789-.126-.252V9.788h1.324v.031Zm1.735-.728.158.757.126.095v2.837h-1.356V9.092h1.072Zm1.797-.126-.126 1.23h-.347c-.157 0-.315 0-.504.031-.19.032-.41.095-.662.158l-.095-.725c.252-.22.505-.41.757-.536.252-.126.504-.19.756-.19h.221v.032Zm2.237.002c.473 0 .883.063 1.167.19.283.125.504.346.63.63.127.284.19.662.19 1.135s-.064.851-.19 1.135c-.126.284-.346.473-.63.599-.284.126-.694.19-1.167.19-.473 0-.883-.064-1.166-.19-.284-.126-.505-.315-.631-.6-.126-.283-.19-.661-.19-1.134 0-.473.064-.851.19-1.135a1.23 1.23 0 0 1 .63-.63c.284-.127.663-.19 1.167-.19Zm0 .946c-.157 0-.284.031-.347.095-.094.063-.126.157-.189.283a2.988 2.988 0 0 0-.063.63c0 .285.032.474.063.631.032.158.095.253.19.284.094.063.189.063.346.063a.843.843 0 0 0 .347-.063.46.46 0 0 0 .19-.284 3.1 3.1 0 0 0 .062-.63c0-.284-.031-.473-.063-.63-.031-.158-.094-.253-.189-.284a.566.566 0 0 0-.347-.095Zm3.906-.822v2.333c0 .126.032.189.063.252.063.063.158.063.252.063.126 0 .253-.031.379-.063.126-.031.283-.095.472-.19l.095.694c-.252.221-.504.41-.757.505-.252.126-.504.158-.788.158-.725 0-1.072-.347-1.072-1.04V9.06h1.356v.032Zm2.428 0v3.689h-1.072l-.158-.757-.126-.095V9.06h1.356v.032Zm1.83.002.127.63.126.126v2.428l-.032.095c0 .157.032.315.032.504v1.325h-1.356V9.156h1.103v-.063Zm1.514-.095c.473 0 .82.158 1.009.504.189.347.315.82.315 1.45 0 .505-.063.884-.157 1.167-.095.284-.253.473-.474.568-.22.126-.472.158-.756.158-.284 0-.536-.032-.757-.127a1.36 1.36 0 0 1-.599-.41l.095-.567c.126.032.252.063.346.126.127.032.253.063.41.063a.923.923 0 0 0 .316-.063c.063-.031.126-.126.157-.284.032-.126.063-.346.063-.63 0-.284-.031-.505-.063-.63-.031-.158-.094-.253-.157-.284a.63.63 0 0 0-.284-.064 1.177 1.177 0 0 0-.725.253l-.19-.536c.095-.126.19-.253.347-.347.158-.095.316-.19.505-.252.189-.063.378-.095.599-.095Z" fill="#fff"/></svg>