<svg width="15" height="9" fill="none" xmlns="http://www.w3.org/2000/svg"><path d="m14.82.793.046.072a.823.823 0 0 1-.073.461l-.14.314a.347.347 0 0 0-.052.103c-.118.213-.267.407-.393.614-.02.011-.02.03-.02.05-.028.04-.07.067-.096.111a1.448 1.448 0 0 1-.135.189c-.101.128-.2.257-.29.392l-.135.176-.278.335c-.043.09-.115.16-.17.241-.03.044-.07.077-.093.125a2.243 2.243 0 0 0-.249.347c-.052.09-.099.176-.124.276-.015.02-.007.041-.007.063-.027.043.005.088 0 .132a.157.157 0 0 0 .016.083c.05.112.111.218.203.302.092.083.17.18.263.263.147.13.286.268.43.404l.228.224c.063.062.125.126.189.188.048.049.104.09.143.146.04.06.093.107.146.155l.01.01a.072.072 0 0 0 .009.01l.036.043c.02.05.068.077.1.118.102.127.198.26.288.396.045.07.09.14.126.214a.803.803 0 0 1 .077.259.299.299 0 0 1-.037.196c-.066.119-.183.174-.301.222a.673.673 0 0 1-.267.065c-.102 0-.205 0-.307-.002a.15.15 0 0 0-.087.02c-.023.005-.048-.013-.073.002a.026.026 0 0 0-.01.003 24.452 24.452 0 0 0-.891 0c-.044.01-.092.001-.136.016h-.456l-.032.001a.873.873 0 0 1-.283-.042c-.25-.071-.484-.174-.676-.354-.113-.107-.24-.198-.348-.309a.32.32 0 0 0-.096-.121c-.084-.098-.167-.197-.252-.293-.065-.071-.134-.14-.2-.21l-.031-.03c-.095-.095-.186-.195-.288-.285a.706.706 0 0 0-.304-.176.062.062 0 0 0-.043-.016.43.43 0 0 0-.3.092c-.042.034-.067.076-.102.115a.305.305 0 0 0-.071.12.854.854 0 0 0-.103.264c-.04.207-.087.413-.076.626a.848.848 0 0 1-.085.372.21.21 0 0 1-.058.082c-.086.07-.192.093-.293.126l-.146.001H7.424a4.237 4.237 0 0 1-.262-.04c-.153-.031-.311-.038-.459-.1-.016-.006-.037-.003-.056-.004l-.219-.068c-.027-.01-.054-.024-.081-.031-.146-.037-.28-.107-.421-.157-.193-.068-.364-.183-.537-.288-.09-.056-.173-.12-.268-.17a.166.166 0 0 0-.092-.062c-.006-.02-.024-.028-.04-.036a.73.73 0 0 1-.146-.11c-.14-.134-.299-.247-.438-.383l-.032-.03c-.048-.054-.114-.094-.154-.151-.064-.09-.144-.17-.213-.256-.047-.058-.09-.119-.151-.164-.007-.023-.025-.035-.043-.05-.044-.055-.094-.108-.13-.167-.087-.138-.193-.261-.287-.394-.022-.066-.084-.1-.123-.153-.024-.037-.05-.072-.074-.108a5.109 5.109 0 0 1-.25-.391c-.025-.072-.076-.127-.123-.184-.05-.07-.09-.146-.136-.22-.083-.135-.17-.267-.24-.41-.04-.08-.101-.147-.141-.227a.608.608 0 0 0-.081-.163c-.04-.068-.086-.134-.122-.205a4.109 4.109 0 0 0-.192-.349c-.051-.082-.094-.168-.138-.253a35.808 35.808 0 0 0-.204-.385c0-.029-.015-.05-.031-.07a62.806 62.806 0 0 1-.218-.428c-.002-.026.01-.054-.019-.073 0-.02-.01-.036-.02-.052-.054-.092-.098-.188-.144-.284-.034-.07-.064-.143-.096-.215-.004-.038-.025-.068-.043-.1a.646.646 0 0 1-.03-.29c.01-.055.042-.09.085-.12a.453.453 0 0 1 .187-.07c.043 0 .085-.007.128-.009.365-.012.73.018 1.093-.02.142-.015.286-.004.43-.004h.515c.11.036.226.057.321.128a.332.332 0 0 1 .118.138c.04.075.064.156.112.226.065.182.155.352.228.53a.51.51 0 0 0 .062.123c.004.028.026.047.039.07.113.216.206.442.348.644.018.047.03.097.069.134.018.057.075.085.095.143.015.048.046.087.074.128l.135.207c.005.013.01.03.016.042a3.3 3.3 0 0 0 .262.366c.04.068.084.133.146.184a.1.1 0 0 0 .031.056c.028.025.055.05.08.078.073.088.158.16.252.223a.47.47 0 0 0 .194.07c.128.012.213-.052.275-.16.068-.115.08-.245.119-.368.005-.065.019-.129.029-.194.022-.13.01-.26.033-.39v-.51c.018-.013.018-.027 0-.039 0-.04 0-.082-.002-.123.003-.032.007-.065-.002-.096a.623.623 0 0 1-.016-.16c.003-.054 0-.108-.002-.16-.002-.045.012-.091-.009-.135-.005-.041-.015-.082-.016-.124-.006-.093-.048-.177-.06-.27a.46.46 0 0 0-.115-.239.718.718 0 0 0-.398-.245c-.07-.013-.133-.051-.207-.05C5.56.88 5.554.867 5.575.81a.543.543 0 0 1 .217-.25c.051-.05.119-.072.176-.11.068-.012.134-.031.199-.05.165-.05.338-.048.506-.076h.032l.02-.001c.005 0 .009-.003.013-.005.13-.02.26-.006.39-.013h.167l.218.001c.232 0 .463-.006.695.025.09.025.188.012.279.039.008.003.015.007.023.008.159.026.31.065.434.175.01.054.063.08.082.128.025.061.044.125.066.187.01.082.027.165.03.249.004.157 0 .314 0 .472 0 .053-.02.104-.012.158l-.004.004v.004c-.01.023-.004.046-.005.07-.006.139.012.277-.011.413-.009.009-.009.018-.004.027 0 .009 0 .015-.002.023v1.256c.013.037.015.075.02.112.01.07.01.142.052.205a.5.5 0 0 0 .151.222c.037.035.095.074.147.06.11-.032.22-.069.294-.166a.458.458 0 0 0 .144-.12c.088-.107.193-.202.264-.322.032-.02.04-.055.064-.079.086-.095.146-.208.223-.31.023-.035.056-.065.063-.11.071-.052.095-.136.139-.206.069-.111.146-.218.2-.337.024-.044.042-.09.072-.133.073-.101.12-.216.18-.326.042-.069.075-.142.11-.215l.306-.68c.039-.114.092-.221.145-.33l.04-.03a.401.401 0 0 1 .275-.103c.102.004.204 0 .305 0H14.1c.026 0 .053.002.077-.007.053-.003.104-.019.157-.015.041.003.08.02.12.02a.493.493 0 0 1 .369.134L14.82.793Z" fill="#fff"/></svg>